#!OML:ASF I:\Actors\actors\Patient Classification 1\Patient 1\Session 1\Subject1.ASF
:FULLY-SPECIFIED
:DEGREES
126
root 0.768225 17.5238 8.46148 9.04404 1.82647 -9.01866
lowerback -0.478693 0.541728 7.4931
upperback -7.69918 1.13096 1.67219
thorax -7.74494 0.129149 -2.49063
lowerneck -7.55903 -7.42374 -6.05011
upperneck 15.3953 -11.2427 11.1699
head 6.91967 -4.96281 3.59263
rclavicle 3.32964e-015 2.34566e-014
rhumerus -35.2079 17.0675 -101.866
rradius 65.0581
rwrist 13.273
rhand -19.15 -40.5761
rfingers 7.12502
rthumb 7.16033 -70.435
lclavicle 3.32964e-015 2.34566e-014
lhumerus -36.631 -18.3495 104.305
lradius 58.2341
lwrist 12.6854
lhand -30.512 -21.1523
lfingers 7.12502
lthumb -3.81188 8.79334
rfemur -4.83711 24.4053 25.7867
rtibia 3.32953
rfoot -12.2212 -24.1176
rtoes 3.57009
lfemur 1.63589 -43.0991 -7.72158
ltibia -3.92773
lfoot -16.9017 48.1768
ltoes 3.53948
127
root 0.765837 17.5283 8.4253 9.0689 1.76521 -8.86647
lowerback -0.213975 0.568087 7.46141
upperback -7.67372 1.18184 1.55272
thorax -7.8642 0.147948 -2.60565
lowerneck -7.60659 -7.29744 -5.89566
upperneck 15.4758 -11.1013 11.2061
head 6.93418 -4.87897 3.59285
rclavicle -1.53561e-014 -2.26615e-014
rhumerus -32.201 17.9538 -101.86
rradius 67.3917
rwrist 15.0522
rhand -19.8091 -41.487
rfingers 7.12502
rthumb 6.52411 -71.3665
lclavicle -1.53561e-014 -2.26615e-014
lhumerus -34.3245 -20.0783 104.932
lradius 61.2826
lwrist 12.0469
lhand -31.2471 -22.566
lfingers 7.12502
lthumb -4.52171 7.3657
rfemur -5.06929 24.3327 25.5182
rtibia 3.38155
rfoot -12.0304 -24.0523
rtoes 3.39485
lfemur 1.171 -42.5535 -7.5933
ltibia -3.71125
lfoot -16.7301 47.6457
ltoes 3.67027
128
root 0.761128 17.5336 8.38832 9.11377 1.48232 -8.84066
lowerback 0.0565212 0.63616 7.43371
upperback -7.69122 1.29674 1.51638
thorax -8.02944 0.19867 -2.63971
lowerneck -7.64983 -7.07193 -5.6332
upperneck 15.779 -10.8354 11.0956
head 6.99333 -4.73362 3.54144
rclavicle -2.30093e-014 7.55382e-015
rhumerus -28.8151 18.8025 -101.586
rradius 68.8338
rwrist 16.5842
rhand -19.8854 -42.0574
rfingers 7.12502
rthumb 6.45047 -71.9392
lclavicle -2.30093e-014 7.55382e-015
lhumerus -31.8824 -21.3283 105.28
lradius 63.9262
lwrist 11.3992
lhand -32.2049 -24.2711
lfingers 7.12502
lthumb -5.44653 5.63892
rfemur -5.41186 24.2688 25.3732
rtibia 3.57321
rfoot -11.7688 -23.7507
rtoes 3.17583
lfemur 0.846449 -42.037 -7.40055
ltibia -3.56581
lfoot -16.8474 47.3051
ltoes 4.1354
129
root 0.754628 17.5399 8.34936 9.1035 1.15432 -8.94547
lowerback 0.384392 0.703635 7.5043
upperback -7.7234 1.42581 1.53814
thorax -8.24491 0.249766 -2.66966
lowerneck -7.70788 -6.8684 -5.40058
upperneck 16.204 -10.5892 10.8782
head 7.09271 -4.60354 3.45749
rclavicle -1.30204e-014 -1.98785e-014
rhumerus -24.948 19.4319 -100.99
rradius 69.1034
rwrist 18.3941
rhand -17.765 -42.0493
rfingers 7.12502
rthumb 8.49717 -71.8584
lclavicle -1.30204e-014 -1.98785e-014
lhumerus -29.1225 -22.4047 105.37
lradius 65.561
lwrist 10.2798
lhand -33.6442 -26.9454
lfingers 7.12502
lthumb -6.83614 2.92426
rfemur -5.76301 24.1721 25.4079
rtibia 3.87816
rfoot -11.5606 -23.3456
rtoes 3.03375
lfemur 0.592895 -41.3038 -7.05113
ltibia -3.48782
lfoot -16.6484 46.8119
ltoes 4.18949
130
root 0.74393 17.547 8.31312 8.93752 0.544183 -9.08453
lowerback 0.787915 0.841097 7.48499
upperback -7.71602 1.65204 1.59333
thorax -8.45276 0.357037 -2.62412
lowerneck -7.81749 -6.67905 -5.33319
upperneck 16.8079 -10.3819 10.7911
head 7.27996 -4.48485 3.43749
rclavicle 1.68967e-015 6.75868e-015
rhumerus -20.9228 19.2806 -100.313
rradius 68.345
rwrist 20.4447
rhand -19.3062 -42.3671
rfingers 7.12502
rthumb 7.00956 -72.2311
lclavicle 1.68967e-015 6.75868e-015
lhumerus -25.955 -23.3425 105.183
lradius 65.8618
lwrist 8.24698
lhand -35.6018 -29.7864
lfingers 7.12502
lthumb -8.72552 0.0132346
rfemur -5.96498 24.0846 25.561
rtibia 4.22972
rfoot -11.3048 -22.7044
rtoes 2.82488
lfemur 0.886521 -40.7802 -7.01279
ltibia -3.54495
lfoot -16.9171 46.6695
ltoes 4.89389
